<svg xmlns="http://www.w3.org/2000/svg" width="30px" height="30px" fill='green' xmlns:xlink="http://www.w3.org/1999/xlink" version="1.1" x="0px" y="0px" viewBox="0 0 48 48" enable-background="new 0 0 48 48" xml:space="preserve"><path d="M26,20v-9c0-1.1,0.9-2,2-2s2,0.9,2,2v4.2l7.6-7.6c0.8-0.8,2-0.8,2.8,0c0.8,0.8,0.8,2,0,2.8L32.8,18H37c1.1,0,2,0.9,2,2  s-0.9,2-2,2h-9C26.9,22,26,21.1,26,20z M20,9c-1.1,0-2,0.9-2,2v4.2l-7.6-7.6c-0.8-0.8-2-0.8-2.8,0c-0.8,0.8-0.8,2,0,2.8l7.6,7.6H11  c-1.1,0-2,0.9-2,2s0.9,2,2,2h9c1.1,0,2-0.9,2-2v-9C22,9.9,21.1,9,20,9z M32.8,30H37c1.1,0,2-0.9,2-2s-0.9-2-2-2h-9c-1.1,0-2,0.9-2,2  v9c0,1.1,0.9,2,2,2s2-0.9,2-2v-4.2l7.6,7.6C38,40.8,38.5,41,39,41s1-0.2,1.4-0.6c0.8-0.8,0.8-2,0-2.8L32.8,30z M20,26h-9  c-1.1,0-2,0.9-2,2s0.9,2,2,2h4.2l-7.6,7.6c-0.8,0.8-0.8,2,0,2.8C8,40.8,8.5,41,9,41s1-0.2,1.4-0.6l7.6-7.6V37c0,1.1,0.9,2,2,2  s2-0.9,2-2v-9C22,26.9,21.1,26,20,26z"/></svg>
